#!OML:ASF E:\Steps\Project 1\Capture day 1\Session 2\Subject.ASF
:FULLY-SPECIFIED
:DEGREES
246
root 7.97964 15.9707 27.8849 -154.736 3.85532 175.509
lowerback -26.1851 -0.271023 -8.96034
upperback 0.10031 3.20614 -2.34821
thorax 14.5666 1.07521 3.67245
lowerneck -4.43371 -1.55473 -1.40408
upperneck 17.7937 -3.27242 2.03442
head 6.16975 -1.88568 0.623069
rclavicle 1.58034e-014 -5.56597e-014
rhumerus -32.287 -10.5087 -83.5854
rradius 38.6567
rwrist -5.2641
rhand -8.14258 -51.6956
rfingers 7.12502
rthumb 17.7716 -80.9035
lclavicle 1.58034e-014 -5.56597e-014
lhumerus -35.242 18.8931 70.1767
lradius 14.2357
lwrist -16.6194
lhand -19.0257 -14.2482
lfingers 7.12502
lthumb 7.28035 15.6065
rfemur -12.6191 7.91256 19.2431
rtibia 15.0567
rfoot -27.7839 -4.70606
rtoes -34.9468
lfemur -44.4177 -9.63705 -20.4725
ltibia 19.1104
lfoot -1.34733 2.49435
ltoes -30.8606
247
root 7.96873 15.9837 27.7874 -154.687 3.61352 175.511
lowerback -26.2116 -0.305287 -8.97823
upperback 0.101145 3.16994 -2.33774
thorax 14.5855 1.05676 3.68248
lowerneck -4.64877 -1.61849 -1.34296
upperneck 18.0512 -3.3777 1.98379
head 6.2891 -1.93832 0.58471
rclavicle -2.0773e-014 2.10712e-014
rhumerus -32.4566 -10.6931 -83.4184
rradius 38.8584
rwrist -5.47705
rhand -8.10932 -51.9332
rfingers 7.12502
rthumb 17.8037 -81.1382
lclavicle -2.0773e-014 2.10712e-014
lhumerus -35.2412 19.5723 69.7819
lradius 14.0142
lwrist -17.238
lhand -18.8462 -14.3788
lfingers 7.12502
lthumb 7.45365 15.4699
rfemur -12.7226 7.65138 19.2975
rtibia 15.7145
rfoot -27.0565 -4.99374
rtoes -35.9593
lfemur -44.2746 -9.74241 -20.6103
ltibia 19.488
lfoot -1.60194 2.10781
ltoes -32.8441
248
root 7.95794 15.9976 27.6809 -154.798 3.53944 175.564
lowerback -26.1354 -0.268497 -8.95408
upperback 0.0735398 3.20336 -2.35188
thorax 14.5074 1.07998 3.66203
lowerneck -4.20888 -1.72209 -1.25742
upperneck 17.7155 -3.53496 2.07961
head 6.10953 -2.00545 0.59872
rclavicle -6.55989e-015 -3.10104e-014
rhumerus -32.6578 -10.9478 -83.2838
rradius 38.8845
rwrist -5.67171
rhand -8.2728 -52.2061
rfingers 7.12502
rthumb 17.6463 -81.4253
lclavicle -6.55989e-015 -3.10104e-014
lhumerus -35.3434 19.6471 69.6662
lradius 14.0014
lwrist -17.2835
lhand -18.8431 -14.4308
lfingers 7.12502
lthumb 7.4566 15.4178
rfemur -12.7332 7.51233 19.3636
rtibia 16.6722
rfoot -26.5834 -4.95345
rtoes -36.2347
lfemur -43.7871 -9.69245 -20.764
ltibia 19.6298
lfoot -1.85563 2.0005
ltoes -35.2176
249
root 7.94832 16.0055 27.5818 -154.684 3.55199 175.525
lowerback -26.259 -0.371052 -9.06058
upperback 0.0354173 3.1275 -2.36923
thorax 14.5372 1.04302 3.67925
lowerneck -3.71269 -1.71517 -1.38971
upperneck 17.1588 -3.53649 2.44729
head 5.85671 -1.98765 0.747777
rclavicle -3.10104e-014 2.94201e-014
rhumerus -32.678 -10.9051 -83.325
rradius 38.9237
rwrist -5.8276
rhand -8.55353 -52.3913
rfingers 7.12502
rthumb 17.3762 -81.6346
lclavicle -3.10104e-014 2.94201e-014
lhumerus -35.3335 19.4313 69.8107
lradius 14.1122
lwrist -16.6659
lhand -18.8872 -14.1054
lfingers 7.12502
lthumb 7.41407 15.7447
rfemur -13.1992 7.28054 19.2173
rtibia 18.1557
rfoot -26.4508 -4.2228
rtoes -34.5021
lfemur -43.5783 -9.6034 -20.9662
ltibia 19.7533
lfoot -2.12549 2.08098
ltoes -35.7703
250
root 7.9339 16.0178 27.4817 -154.729 3.57473 175.483
lowerback -26.2796 -0.442031 -9.11192
upperback 0.12911 3.06191 -2.4104
thorax 14.6709 1.00055 3.6369
lowerneck -3.39769 -1.51545 -1.58366
upperneck 16.525 -3.24833 2.88157
head 5.60724 -1.81995 0.942884
rclavicle -1.22253e-014 3.22031e-014
rhumerus -32.6038 -10.8799 -83.4058
rradius 39.0271
rwrist -5.8361
rhand -8.50571 -52.0969
rfingers 7.12502
rthumb 17.4222 -81.3361
lclavicle -1.22253e-014 3.22031e-014
lhumerus -35.1396 19.103 70.0806
lradius 14.2945
lwrist -15.9139
lhand -18.78 -13.3518
lfingers 7.12502
lthumb 7.51753 16.4947
rfemur -13.6643 6.82721 19.031
rtibia 19.7707
rfoot -26.1304 -3.47311
rtoes -33.1951
lfemur -43.1311 -9.72355 -21.0866
ltibia 19.7059
lfoot -2.32372 2.29708
ltoes -34.1866
251
root 7.92217 16.0312 27.3876 -154.753 3.47502 175.439
lowerback -26.2242 -0.458214 -9.19424
upperback 0.179533 3.05785 -2.40676
thorax 14.6974 0.987724 3.68429
lowerneck -3.48603 -1.51635 -1.62962
upperneck 16.4307 -3.23916 2.97774
head 5.5949 -1.80503 0.981057
rclavicle 5.96354e-016 -2.18663e-014
rhumerus -32.6606 -11.0953 -83.2311
rradius 39.1032
rwrist -5.9253
rhand -8.33626 -51.8921
rfingers 7.12502
rthumb 17.5853 -81.1168
lclavicle 5.96354e-016 -2.18663e-014
lhumerus -34.9179 18.5877 70.546
lradius 14.4402
lwrist -15.4016
lhand -18.6978 -12.9315
lfingers 7.12502
lthumb 7.5968 16.9121
rfemur -14.1967 6.44775 18.9493
rtibia 21.3368
rfoot -25.6728 -3.14804
rtoes -33.0538
lfemur -42.7326 -9.68581 -21.3218
ltibia 19.6532
lfoot -2.4553 2.16486
ltoes -32.9207
252
root 7.90819 16.0454 27.2832 -154.886 3.40172 175.401
lowerback -26.2543 -0.399474 -9.24821
upperback 0.603726 3.16238 -2.34865
thorax 14.419 1.03093 3.70056
lowerneck -3.7732 -1.71256 -1.55413
upperneck 16.699 -3.51688 2.885
head 5.7326 -1.93996 0.91727
rclavicle -7.65321e-015 7.95139e-015
rhumerus -32.9006 -11.2213 -82.9728
rradius 39.327
rwrist -6.29159
rhand -8.37669 -52.1101
rfingers 7.12502
rthumb 17.5464 -81.3383
lclavicle -7.65321e-015 7.95139e-015
lhumerus -34.7321 17.9342 71.0773
lradius 14.5188
lwrist -14.9489
lhand -18.7272 -13.2333
lfingers 7.12502
lthumb 7.56847 16.6113
rfemur -14.4535 6.04182 18.8992
rtibia 22.8136
rfoot -25.2192 -2.78266
rtoes -32.883
lfemur -42.0659 -9.46563 -21.7236
ltibia 19.4763
lfoot -2.70571 1.785
ltoes -32.1569
253
root 7.89167 16.0524 27.1793 -154.799 3.32391 175.391
lowerback -26.4955 -0.357469 -9.22691
upperback 0.574697 3.25698 -2.39175
thorax 14.497 1.07746 3.68241
lowerneck -3.78255 -2.07996 -1.42403
upperneck 16.793 -4.07511 3.00976
head 5.77765 -2.19963 0.898644
rclavicle 1.16289e-014 -2.5842e-014
rhumerus -33.2343 -11.2885 -82.8105
rradius 39.5727
rwrist -6.66068
rhand -8.35534 -52.1194
rfingers 7.12502
rthumb 17.5669 -81.3457
lclavicle 1.16289e-014 -2.5842e-014
lhumerus -34.6231 17.1788 71.5261
lradius 14.674
lwrist -14.4408
lhand -18.7057 -13.5072
lfingers 7.12502
lthumb 7.58918 16.3366
rfemur -15.0382 5.51114 18.807
rtibia 24.4985
rfoot -24.7366 -2.21139
rtoes -32.66
lfemur -41.708 -9.43457 -21.9278
ltibia 19.4308
lfoot -3.05991 1.2632
ltoes -29.9531
254
root 7.8779 16.0595 27.0773 -154.81 3.29309 175.467
lowerback -26.5959 -0.424455 -9.19074
upperback 0.609847 3.14461 -2.27334
thorax 14.5948 1.01457 3.75408
lowerneck -3.77353 -1.64308 -1.45537
upperneck 16.7621 -3.39532 2.6351
head 5.74386 -1.89269 0.82966
rclavicle -9.93923e-016 8.90555e-014
rhumerus -33.2989 -10.9432 -82.6559
rradius 39.6665
rwrist -6.9421
rhand -8.23941 -52.0022
rfingers 7.12502
rthumb 17.6785 -81.2186
lclavicle -9.93923e-016 8.90555e-014
lhumerus -34.5799 17.1935 71.839
lradius 14.8219
lwrist -14.2732
lhand -18.6468 -13.4248
lfingers 7.12502
lthumb 7.64607 16.417
rfemur -15.7299 5.02256 18.81
rtibia 26.4088
rfoot -24.0794 -1.73812
rtoes -33.8245
lfemur -41.2317 -9.44455 -22.0079
ltibia 19.3805
lfoot -3.38056 0.837927
ltoes -28.4566
255
root 7.86412 16.0702 26.978 -154.849 3.26173 175.532
lowerback -26.728 -0.45207 -9.17532
upperback 0.693541 3.11011 -2.22655
thorax 14.7592 0.983066 3.78905
lowerneck -3.98696 -1.91658 -1.39966
upperneck 17.048 -3.83433 2.77761
head 5.88217 -2.09739 0.831935
rclavicle 7.65321e-015 7.55382e-015
rhumerus -33.2638 -11.0264 -82.5424
rradius 39.6463
rwrist -6.94351
rhand -8.22232 -51.9652
rfingers 7.12502
rthumb 17.6949 -81.1801
lclavicle 7.65321e-015 7.55382e-015
lhumerus -34.3681 17.1388 72.0616
lradius 14.9132
lwrist -14.2085
lhand -18.5902 -13.2603
lfingers 7.12502
lthumb 7.70069 16.5794
rfemur -16.541 4.45571 18.8241
rtibia 28.4778
rfoot -23.0821 -1.5199
rtoes -35.7837
lfemur -40.6668 -9.3309 -22.2127
ltibia 19.2465
lfoot -3.58654 0.634189
ltoes -28.3241
256
root 7.85123 16.0828 26.8815 -154.874 3.31342 175.469
lowerback -26.8338 -0.497073 -9.30075
upperback 0.764237 3.10836 -2.23022
thorax 14.8868 0.963119 3.85563
lowerneck -3.76431 -1.93246 -1.49819
upperneck 16.5257 -3.82805 3.02237
head 5.68619 -2.07501 0.933168
rclavicle 2.9122e-014 -3.26007e-014
rhumerus -33.1168 -11.2551 -82.4089
rradius 39.4518
rwrist -6.83699
rhand -8.15984 -51.7371
rfingers 7.12502
rthumb 17.755 -80.9465
lclavicle 2.9122e-014 -3.26007e-014
lhumerus -34.1549 17.2454 72.1748
lradius 15.0278
lwrist -14.3473
lhand -18.4476 -13.2318
lfingers 7.12502
lthumb 7.83829 16.6029
rfemur -17.4675 3.88004 18.6603
rtibia 30.6768
rfoot -21.9542 -1.0753
rtoes -36.5625
lfemur -40.0841 -9.1642 -22.5702
ltibia 18.9959
lfoot -3.73015 0.480125
ltoes -28.7365
257
root 7.83763 16.0926 26.7824 -154.87 3.36492 175.431
lowerback -26.8806 -0.54818 -9.41445
upperback 0.774403 3.0794 -2.19842
thorax 14.9164 0.938552 3.94174
lowerneck -3.89261 -1.74551 -1.47129
upperneck 16.7501 -3.58509 2.95693
head 5.77082 -1.96238 0.919853
rclavicle -1.63003e-014 -1.19271e-015
rhumerus -33.1104 -11.2353 -82.2301
rradius 39.3917
rwrist -6.97967
rhand -7.87488 -51.5612
rfingers 7.12502
rthumb 18.0292 -80.7456
lclavicle -1.63003e-014 -1.19271e-015
lhumerus -34.0049 16.8761 72.5746
lradius 15.3076
lwrist -14.0015
lhand -18.3135 -13.3352
lfingers 7.12502
lthumb 7.96777 16.4946
rfemur -18.4456 3.23776 18.4846
rtibia 32.8544
rfoot -20.8166 -0.2538
rtoes -35.7176
lfemur -39.5747 -9.1488 -22.7849
ltibia 18.7832
lfoot -4.03288 0.376956
ltoes -29.0814
258
root 7.82432 16.1026 26.6902 -154.827 3.15689 175.428
lowerback -26.7763 -0.674364 -9.43805
upperback 0.679867 2.89827 -2.14296
thorax 14.7726 0.867796 3.94427
lowerneck -3.89766 -1.9 -1.45644
upperneck 16.8092 -3.81637 2.98334
head 5.79617 -2.07535 0.910306
rclavicle -2.78299e-015 1.59028e-015
rhumerus -33.3163 -11.1661 -82.0865
rradius 39.4777
rwrist -7.18328
rhand -8.04041 -51.5717
rfingers 7.12502
rthumb 17.87 -80.7707
lclavicle -2.78299e-015 1.59028e-015
lhumerus -33.9797 15.9212 73.1837
lradius 15.6721
lwrist -13.1466
lhand -18.3256 -13.5494
lfingers 7.12502
lthumb 7.95613 16.2809
rfemur -19.4595 2.34852 18.4645
rtibia 35.0355
rfoot -19.4629 0.430408
rtoes -34.0089
lfemur -39.1857 -9.18252 -22.9431
ltibia 18.7015
lfoot -4.36265 0.0775457
ltoes -29.1928
259
root 7.80745 16.1071 26.5934 -154.773 3.05088 175.455
lowerback -26.777 -0.7725 -9.34366
upperback 0.566404 2.73702 -2.11596
thorax 14.6642 0.815635 3.86248
lowerneck -3.89686 -1.81052 -1.35824
upperneck 17.0069 -3.71281 2.85415
head 5.85156 -2.03557 0.858087
rclavicle -2.6339e-014 5.04913e-014
rhumerus -33.5366 -11.1588 -81.9788
rradius 39.445
rwrist -7.30751
rhand -8.87164 -51.9767
rfingers 7.12502
rthumb 17.07 -81.2468
lclavicle -2.6339e-014 5.04913e-014
lhumerus -33.9921 15.6261 73.4129
lradius 15.7695
lwrist -12.9787
lhand -18.5008 -13.6991
lfingers 7.12502
lthumb 7.78701 16.1375
rfemur -20.5748 1.53912 18.4289
rtibia 37.3298
rfoot -17.8282 0.74989
rtoes -33.6413
lfemur -38.7443 -9.23175 -23.0588
ltibia 18.5098
lfoot -4.62168 -0.0682437
ltoes -30.0227
